<svg width="94" height="57" viewBox="0 0 94 57" fill="none" xmlns="http://www.w3.org/2000/svg">
<rect x="27" width="40" height="40" rx="5" fill="url(#paint0_linear_17_2)"/>
<path d="M45.6667 29.3333V22.5187L35 10.6667V8H59V10.6667L48.3333 22.5187V29.3333H55V32H39V29.3333H45.6667ZM40.9867 13.3333H53.0133L55.4133 10.6667H38.5867L40.9867 13.3333Z" fill="white"/>
<path d="M4.71594 49.752L4.76394 49.692C5.29194 49.708 5.72794 49.812 6.07194 50.004C6.41594 50.188 6.66794 50.436 6.82794 50.748C6.99594 51.052 7.07994 51.4 7.07994 51.792C7.07994 52.2 6.98394 52.572 6.79194 52.908C6.60794 53.236 6.30394 53.5 5.87994 53.7C5.45594 53.9 4.89594 54 4.19994 54H1.03194V53.748L2.30394 53.556L2.19594 53.688V46.008L2.30394 46.14L1.03194 45.996V45.744L2.60394 45.684H4.28394C4.85994 45.684 5.32794 45.768 5.68794 45.936C6.05594 46.104 6.32394 46.34 6.49194 46.644C6.66794 46.94 6.75594 47.288 6.75594 47.688C6.75594 48.208 6.60394 48.652 6.29994 49.02C5.99594 49.38 5.46794 49.624 4.71594 49.752ZM4.18794 46.02H2.49594L2.60394 45.912V49.68L2.49594 49.572H3.86394C4.44794 49.572 4.92394 49.496 5.29194 49.344C5.65994 49.184 5.92394 48.968 6.08394 48.696C6.25194 48.416 6.33594 48.096 6.33594 47.736C6.33594 47.384 6.25994 47.08 6.10794 46.824C5.95594 46.568 5.71994 46.372 5.39994 46.236C5.08794 46.092 4.68394 46.02 4.18794 46.02ZM4.17594 53.664C4.77594 53.664 5.25594 53.584 5.61594 53.424C5.97594 53.256 6.23994 53.032 6.40794 52.752C6.57594 52.472 6.65994 52.152 6.65994 51.792C6.65994 51.44 6.58394 51.12 6.43194 50.832C6.27994 50.544 6.04394 50.32 5.72394 50.16C5.41194 49.992 5.00794 49.908 4.51194 49.908H2.49594L2.60394 49.8V53.772L2.49594 53.664H4.17594ZM12.7719 53.7L12.6759 53.58L13.8279 53.724V53.976L12.4719 54.036L12.4119 52.884L12.4599 52.92C12.0999 53.288 11.7039 53.576 11.2719 53.784C10.8399 53.984 10.4239 54.084 10.0239 54.084C9.56788 54.084 9.19188 53.944 8.89588 53.664C8.60788 53.376 8.46387 52.94 8.46387 52.356C8.46387 51.884 8.55988 51.528 8.75188 51.288C8.94388 51.04 9.20388 50.876 9.53188 50.796C9.86788 50.708 10.2399 50.664 10.6479 50.664H12.4719L12.3879 50.76V49.356C12.3879 48.868 12.2479 48.516 11.9679 48.3C11.6879 48.084 11.3159 47.976 10.8519 47.976C10.6039 47.976 10.3319 48.004 10.0359 48.06C9.74788 48.116 9.44788 48.204 9.13588 48.324L9.24388 48.18L9.14788 49.344H8.84788L8.75188 48.084C9.14388 47.94 9.51988 47.832 9.87988 47.76C10.2479 47.68 10.5919 47.64 10.9119 47.64C11.4799 47.64 11.9319 47.768 12.2679 48.024C12.6039 48.28 12.7719 48.7 12.7719 49.284V53.7ZM8.87188 52.308C8.87188 52.796 8.98788 53.16 9.21988 53.4C9.45988 53.632 9.75988 53.748 10.1199 53.748C10.4639 53.748 10.8399 53.648 11.2479 53.448C11.6639 53.248 12.0639 52.972 12.4479 52.62L12.3879 52.776V50.892L12.4719 50.976H10.6959C10.0399 50.976 9.57188 51.076 9.29188 51.276C9.01188 51.476 8.87188 51.82 8.87188 52.308ZM14.6452 54V53.748L15.7852 53.568L15.7012 53.676V48.06L15.7972 48.18L14.6452 48V47.748L16.0012 47.676L16.0732 48.888L16.0132 48.852C16.3572 48.476 16.7012 48.18 17.0452 47.964C17.3892 47.748 17.7692 47.64 18.1852 47.64C18.4412 47.64 18.7052 47.68 18.9772 47.76L18.9172 49.14H18.6292L18.4972 47.928L18.5692 48.048C18.4972 48.032 18.4252 48.02 18.3532 48.012C18.2812 48.004 18.2092 48 18.1372 48C17.7612 48 17.4012 48.112 17.0572 48.336C16.7132 48.552 16.3732 48.844 16.0372 49.212L16.0972 49.044V53.676L16.0012 53.568L17.3812 53.748V54H14.6452ZM29.0781 53.676L28.9341 53.556L30.1341 53.748V54H27.2661V53.748L28.6941 53.568L28.6341 53.664L27.8661 51.468L27.9861 51.552H23.9421L24.0741 51.456L23.2581 53.664L23.1981 53.568L24.6021 53.748V54H21.8181V53.748L22.9821 53.556L22.8501 53.676L25.8621 45.696L26.2461 45.672L29.0781 53.676ZM24.1101 51.312L24.0381 51.216H27.8781L27.8181 51.3L25.9941 45.996H26.0781L24.1101 51.312ZM31.1858 49.2C31.1858 49.512 31.2738 49.756 31.4498 49.932C31.6338 50.108 31.8658 50.248 32.1458 50.352C32.4258 50.448 32.7218 50.536 33.0338 50.616C33.3458 50.696 33.6418 50.796 33.9218 50.916C34.2098 51.036 34.4418 51.2 34.6178 51.408C34.7938 51.616 34.8818 51.908 34.8818 52.284C34.8818 52.684 34.7698 53.02 34.5458 53.292C34.3298 53.556 34.0338 53.756 33.6578 53.892C33.2898 54.02 32.8818 54.084 32.4338 54.084C32.1378 54.084 31.8498 54.06 31.5698 54.012C31.2978 53.964 31.0178 53.904 30.7298 53.832L30.8138 52.428H31.0778L31.1858 53.688L31.1018 53.592C31.3098 53.64 31.5338 53.684 31.7738 53.724C32.0138 53.756 32.2458 53.772 32.4698 53.772C32.8458 53.772 33.1858 53.72 33.4898 53.616C33.7938 53.512 34.0378 53.352 34.2218 53.136C34.4058 52.92 34.4978 52.656 34.4978 52.344C34.4978 52.016 34.4098 51.764 34.2338 51.588C34.0578 51.404 33.8258 51.26 33.5378 51.156C33.2578 51.052 32.9618 50.96 32.6498 50.88C32.3458 50.8 32.0498 50.704 31.7618 50.592C31.4818 50.472 31.2538 50.312 31.0778 50.112C30.9018 49.904 30.8138 49.62 30.8138 49.26C30.8138 48.884 30.9098 48.58 31.1018 48.348C31.3018 48.108 31.5658 47.932 31.8938 47.82C32.2218 47.7 32.5738 47.64 32.9498 47.64C33.1898 47.64 33.4578 47.668 33.7538 47.724C34.0578 47.772 34.3618 47.856 34.6658 47.976L34.6298 49.104H34.3538L34.1858 48.06L34.2818 48.18C33.8338 48.036 33.3858 47.964 32.9378 47.964C32.4498 47.964 32.0338 48.064 31.6898 48.264C31.3538 48.464 31.1858 48.776 31.1858 49.2ZM36.8928 49.2C36.8928 49.512 36.9808 49.756 37.1568 49.932C37.3408 50.108 37.5728 50.248 37.8528 50.352C38.1328 50.448 38.4288 50.536 38.7408 50.616C39.0528 50.696 39.3488 50.796 39.6288 50.916C39.9168 51.036 40.1488 51.2 40.3248 51.408C40.5008 51.616 40.5888 51.908 40.5888 52.284C40.5888 52.684 40.4768 53.02 40.2528 53.292C40.0368 53.556 39.7408 53.756 39.3648 53.892C38.9968 54.02 38.5888 54.084 38.1408 54.084C37.8448 54.084 37.5568 54.06 37.2768 54.012C37.0048 53.964 36.7248 53.904 36.4368 53.832L36.5208 52.428H36.7848L36.8928 53.688L36.8088 53.592C37.0168 53.64 37.2408 53.684 37.4808 53.724C37.7208 53.756 37.9528 53.772 38.1768 53.772C38.5528 53.772 38.8928 53.72 39.1968 53.616C39.5008 53.512 39.7448 53.352 39.9288 53.136C40.1128 52.92 40.2048 52.656 40.2048 52.344C40.2048 52.016 40.1168 51.764 39.9408 51.588C39.7648 51.404 39.5328 51.26 39.2448 51.156C38.9648 51.052 38.6688 50.96 38.3568 50.88C38.0528 50.8 37.7568 50.704 37.4688 50.592C37.1888 50.472 36.9608 50.312 36.7848 50.112C36.6088 49.904 36.5208 49.62 36.5208 49.26C36.5208 48.884 36.6168 48.58 36.8088 48.348C37.0088 48.108 37.2728 47.932 37.6008 47.82C37.9288 47.7 38.2808 47.64 38.6568 47.64C38.8968 47.64 39.1648 47.668 39.4608 47.724C39.7648 47.772 40.0688 47.856 40.3728 47.976L40.3368 49.104H40.0608L39.8928 48.06L39.9888 48.18C39.5408 48.036 39.0928 47.964 38.6448 47.964C38.1568 47.964 37.7408 48.064 37.3968 48.264C37.0608 48.464 36.8928 48.776 36.8928 49.2ZM43.3198 53.664L43.2238 53.568L44.3638 53.748V54H41.8678V53.748L43.0078 53.568L42.9238 53.664V48.084L43.0078 48.18L41.8678 48V47.748L43.3198 47.688V53.664ZM43.0318 46.104C42.9198 46.104 42.8278 46.068 42.7558 45.996C42.6838 45.916 42.6478 45.812 42.6478 45.684C42.6478 45.548 42.6838 45.444 42.7558 45.372C42.8358 45.3 42.9318 45.264 43.0438 45.264C43.1558 45.264 43.2478 45.3 43.3198 45.372C43.3918 45.444 43.4278 45.548 43.4278 45.684C43.4278 45.82 43.3878 45.924 43.3078 45.996C43.2278 46.068 43.1358 46.104 43.0318 46.104ZM45.9866 49.2C45.9866 49.512 46.0746 49.756 46.2506 49.932C46.4346 50.108 46.6666 50.248 46.9466 50.352C47.2266 50.448 47.5226 50.536 47.8346 50.616C48.1466 50.696 48.4426 50.796 48.7226 50.916C49.0106 51.036 49.2426 51.2 49.4186 51.408C49.5946 51.616 49.6826 51.908 49.6826 52.284C49.6826 52.684 49.5706 53.02 49.3466 53.292C49.1306 53.556 48.8346 53.756 48.4586 53.892C48.0906 54.02 47.6826 54.084 47.2346 54.084C46.9386 54.084 46.6506 54.06 46.3706 54.012C46.0986 53.964 45.8186 53.904 45.5306 53.832L45.6146 52.428H45.8786L45.9866 53.688L45.9026 53.592C46.1106 53.64 46.3346 53.684 46.5746 53.724C46.8146 53.756 47.0466 53.772 47.2706 53.772C47.6466 53.772 47.9866 53.72 48.2906 53.616C48.5946 53.512 48.8386 53.352 49.0226 53.136C49.2066 52.92 49.2986 52.656 49.2986 52.344C49.2986 52.016 49.2106 51.764 49.0346 51.588C48.8586 51.404 48.6266 51.26 48.3386 51.156C48.0586 51.052 47.7626 50.96 47.4506 50.88C47.1466 50.8 46.8506 50.704 46.5626 50.592C46.2826 50.472 46.0546 50.312 45.8786 50.112C45.7026 49.904 45.6146 49.62 45.6146 49.26C45.6146 48.884 45.7106 48.58 45.9026 48.348C46.1026 48.108 46.3666 47.932 46.6946 47.82C47.0226 47.7 47.3746 47.64 47.7506 47.64C47.9906 47.64 48.2586 47.668 48.5546 47.724C48.8586 47.772 49.1626 47.856 49.4666 47.976L49.4306 49.104H49.1546L48.9866 48.06L49.0826 48.18C48.6346 48.036 48.1866 47.964 47.7386 47.964C47.2506 47.964 46.8346 48.064 46.4906 48.264C46.1546 48.464 45.9866 48.776 45.9866 49.2ZM52.9416 54.084C52.6136 54.084 52.3496 53.984 52.1496 53.784C51.9496 53.576 51.8496 53.256 51.8496 52.824V47.94L51.9456 48.048H50.6496V47.796L51.9456 47.712L51.8496 47.82V46.284L52.2456 46.236V47.82L52.1496 47.724H54.0576L54.0336 48.048H52.1496L52.2456 47.94V52.776C52.2456 53.112 52.3176 53.356 52.4616 53.508C52.6136 53.66 52.8136 53.736 53.0616 53.736C53.2136 53.736 53.3776 53.708 53.5536 53.652C53.7376 53.596 53.9296 53.516 54.1296 53.412L54.2376 53.688C53.7576 53.952 53.3256 54.084 52.9416 54.084ZM59.4359 53.7L59.3399 53.58L60.4919 53.724V53.976L59.1359 54.036L59.0759 52.884L59.1239 52.92C58.7639 53.288 58.3679 53.576 57.9359 53.784C57.5039 53.984 57.0879 54.084 56.6879 54.084C56.2319 54.084 55.8559 53.944 55.5599 53.664C55.2719 53.376 55.1279 52.94 55.1279 52.356C55.1279 51.884 55.2239 51.528 55.4159 51.288C55.6079 51.04 55.8679 50.876 56.1959 50.796C56.5319 50.708 56.9039 50.664 57.3119 50.664H59.1359L59.0519 50.76V49.356C59.0519 48.868 58.9119 48.516 58.6319 48.3C58.3519 48.084 57.9799 47.976 57.5159 47.976C57.2679 47.976 56.9959 48.004 56.6999 48.06C56.4119 48.116 56.1119 48.204 55.7999 48.324L55.9079 48.18L55.8119 49.344H55.5119L55.4159 48.084C55.8079 47.94 56.1839 47.832 56.5439 47.76C56.9119 47.68 57.2559 47.64 57.5759 47.64C58.1439 47.64 58.5959 47.768 58.9319 48.024C59.2679 48.28 59.4359 48.7 59.4359 49.284V53.7ZM55.5359 52.308C55.5359 52.796 55.6519 53.16 55.8839 53.4C56.1239 53.632 56.4239 53.748 56.7839 53.748C57.1279 53.748 57.5039 53.648 57.9119 53.448C58.3279 53.248 58.7279 52.972 59.1119 52.62L59.0519 52.776V50.892L59.1359 50.976H57.3599C56.7039 50.976 56.2359 51.076 55.9559 51.276C55.6759 51.476 55.5359 51.82 55.5359 52.308ZM61.3093 54V53.748L62.4613 53.568L62.3652 53.676V48.072L62.4613 48.18L61.3093 48V47.748L62.6653 47.676L62.7373 48.888L62.6773 48.852C63.0773 48.428 63.4933 48.12 63.9253 47.928C64.3653 47.736 64.7813 47.64 65.1733 47.64C65.7013 47.64 66.1333 47.8 66.4693 48.12C66.8133 48.432 66.9773 48.916 66.9613 49.572V53.676L66.8773 53.568L68.0173 53.748V54H65.5333V53.748L66.6613 53.568L66.5653 53.676V49.668C66.5653 49.092 66.4293 48.668 66.1573 48.396C65.8933 48.124 65.5373 47.988 65.0893 47.988C64.7373 47.988 64.3493 48.084 63.9253 48.276C63.5093 48.468 63.1013 48.772 62.7013 49.188L62.7613 49.044V53.676L62.6653 53.568L63.7933 53.748V54H61.3093ZM70.7893 54.084C70.4613 54.084 70.1973 53.984 69.9973 53.784C69.7973 53.576 69.6973 53.256 69.6973 52.824V47.94L69.7933 48.048H68.4973V47.796L69.7933 47.712L69.6973 47.82V46.284L70.0933 46.236V47.82L69.9973 47.724H71.9053L71.8813 48.048H69.9973L70.0933 47.94V52.776C70.0933 53.112 70.1653 53.356 70.3093 53.508C70.4613 53.66 70.6613 53.736 70.9093 53.736C71.0613 53.736 71.2253 53.708 71.4013 53.652C71.5853 53.596 71.7773 53.516 71.9773 53.412L72.0853 53.688C71.6053 53.952 71.1733 54.084 70.7893 54.084ZM82.2226 53.676L82.0786 53.556L83.2786 53.748V54H80.4106V53.748L81.8386 53.568L81.7786 53.664L81.0106 51.468L81.1306 51.552H77.0866L77.2186 51.456L76.4026 53.664L76.3426 53.568L77.7466 53.748V54H74.9626V53.748L76.1266 53.556L75.9946 53.676L79.0066 45.696L79.3906 45.672L82.2226 53.676ZM77.2546 51.312L77.1826 51.216H81.0226L80.9626 51.3L79.1386 45.996H79.2226L77.2546 51.312ZM86.2905 50.628H85.0425L85.1625 50.52V53.688L85.0545 53.568L86.6265 53.748V54H83.5905V53.748L84.8625 53.556L84.7545 53.688V45.996L84.8625 46.128L83.5905 45.996V45.744L85.1745 45.684H86.7345C87.3185 45.684 87.8025 45.78 88.1865 45.972C88.5705 46.156 88.8585 46.424 89.0505 46.776C89.2505 47.12 89.3505 47.532 89.3505 48.012C89.3505 48.548 89.2305 49.016 88.9905 49.416C88.7505 49.808 88.4025 50.108 87.9465 50.316C87.4905 50.524 86.9385 50.628 86.2905 50.628ZM86.6865 46.02H85.0545L85.1625 45.912V50.388L85.0425 50.292H86.2905C87.1305 50.292 87.7785 50.092 88.2345 49.692C88.6905 49.284 88.9185 48.732 88.9185 48.036C88.9185 47.404 88.7305 46.912 88.3545 46.56C87.9785 46.2 87.4225 46.02 86.6865 46.02ZM92.9828 45.936L91.7228 46.128L91.8188 46.008V53.676L91.7228 53.568L92.9828 53.748V54H90.2468V53.748L91.5068 53.568L91.4108 53.676V46.008L91.5188 46.128L90.2468 45.996V45.744L92.9828 45.684V45.936Z" fill="black"/>
<defs>
<linearGradient id="paint0_linear_17_2" x1="67" y1="18.5" x2="31.5" y2="-35" gradientUnits="userSpaceOnUse">
<stop offset="0.0833333" stop-color="#737DB7"/>
<stop offset="0.452305" stop-color="#5B98CC" stop-opacity="0.703355"/>
<stop offset="1" stop-color="#21D7FF" stop-opacity="0"/>
</linearGradient>
</defs>
</svg>
